<?xml version="1.0" encoding="utf-8"?>
<!-- Generator: Adobe Illustrator 22.1.0, SVG Export Plug-In . SVG Version: 6.00 Build 0)  -->
<svg version="1.1" id="Capa_1" xmlns="http://www.w3.org/2000/svg" xmlns:xlink="http://www.w3.org/1999/xlink" x="0px" y="0px"
	 viewBox="0 0 300 300" style="enable-background:new 0 0 300 300;" xml:space="preserve">
<style type="text/css">
	.st0{opacity:0.8;fill:url(#SVGID_1_);}
	.st1{fill:#262262;}
	.st2{fill:#65CBE4;}
</style>
<g>
	<radialGradient id="SVGID_1_" cx="150" cy="150" r="134.376" gradientUnits="userSpaceOnUse">
		<stop  offset="0.1058" style="stop-color:#4298D3"/>
		<stop  offset="0.3054" style="stop-color:#4699D3"/>
		<stop  offset="0.452" style="stop-color:#539DD3"/>
		<stop  offset="0.5816" style="stop-color:#66A3D3"/>
		<stop  offset="0.7015" style="stop-color:#7EACD5"/>
		<stop  offset="0.8146" style="stop-color:#9BB9D7"/>
		<stop  offset="0.9212" style="stop-color:#BECBD9"/>
		<stop  offset="1" style="stop-color:#DCDBDB"/>
	</radialGradient>
	<circle class="st0" cx="150" cy="150" r="134.4"/>
	<circle class="st1" cx="40.3" cy="228.9" r="14.3"/>
	<circle class="st1" cx="256.6" cy="69" r="14.3"/>
	<circle class="st1" cx="268.3" cy="88.2" r="7.2"/>
	<circle class="st1" cx="55.7" cy="246.3" r="7.2"/>
	<circle class="st1" cx="70.4" cy="43.5" r="7.2"/>
	<circle class="st1" cx="262.7" cy="224" r="14.3"/>
	<g>
		<g>
			<path class="st2" d="M20.3,126.7c13.4,13.4,27.8,27.5,45.9,34.2c16.3,6,34.3,3.9,48.2-6.7c6.7-5.1,11.7-11.7,15.2-19.4
				c1.9-4.2,3.7-8.8,7.2-11.8c6-5.1,14-3.3,20.5-0.2c10.4,4.9,19.6,12.8,28.9,19.4c9.9,7,19.7,13.9,29.6,20.9
				c17.6,12.4,39,31.1,62.3,24.5c0.8-0.2,0.4-1.4-0.3-1.2c-22.5,6.4-43.4-11.7-60.5-23.8c-9.6-6.8-19.2-13.6-28.8-20.3
				c-9-6.4-17.9-13.6-27.6-19c-6.2-3.4-14.1-6.5-21-3.5c-7.6,3.2-9.6,11.7-13.2,18.4c-9.5,17.7-30,27.7-49.8,24.4
				c-22.6-3.7-40.2-21.1-55.7-36.6C20.7,125.3,19.8,126.2,20.3,126.7L20.3,126.7z"/>
		</g>
	</g>
	<g>
		<g>
			<path class="st2" d="M104.9,274.1c15.1-10.5,31-21.8,40.9-37.7c9.2-14.7,11.1-32.5,3.7-48.4c-3.7-8-9.5-14.7-16.8-19.8
				c-4.6-3.2-10.1-6.4-12-12c-2.2-6.3,1-12.8,4.6-17.8c7-9.8,16.9-17.9,25.5-26.3c8.8-8.7,17.7-17.4,26.5-26.2
				c14.8-14.6,35.4-31.8,33-54.9c-0.1-0.8-1.3-0.8-1.3,0c2.3,22.1-17,38.6-31.2,52.6c-8.8,8.7-17.7,17.4-26.5,26.2
				c-8,7.9-16.6,15.4-23.9,24c-4.9,5.7-10,13.4-8.3,21.3c1.7,7.6,9,11.2,14.7,15.4c16.8,12.6,23.3,35.5,15.9,55.1
				c-7.9,21-27.7,35.1-45.5,47.4C103.7,273.5,104.3,274.6,104.9,274.1L104.9,274.1z"/>
		</g>
	</g>
	<g>
		<g>
			<path class="st2" d="M192.3,276.6c8.4-4.1,19.3-8.9,23.2-18.1c3.5-8.3-1.4-16.8-8.2-21.6c-2.5-1.8-6.5-2.9-8.4-5.3
				c-4.6-5.6,3.7-10.4,7.5-13.1c6-4.3,12-8.7,18-13c7.2-5.2,19.2-11.6,17.5-22.2c-0.1-0.8-1.3-0.5-1.2,0.3c1.2,7.7-6,12.8-11.4,16.8
				c-5.4,4-11,7.9-16.4,11.9c-4.5,3.2-9.5,6.2-13.4,10c-2,2-3.9,4.7-3,7.6c1.3,4,6.5,5.5,9.7,7.5c5.2,3.4,9.8,9.3,9.5,15.8
				c-0.6,11.6-14.9,17.8-23.9,22.1C190.9,275.8,191.5,276.9,192.3,276.6L192.3,276.6z"/>
		</g>
	</g>
	<g>
		<g>
			<path class="st2" d="M68.7,157.6c5.2-8.7,13.2-21.1,8.4-31.6c-3.7-8.2-13.5-10.3-21.6-9.7c-1.4,0.1-3.3,0.6-4.7,0.2
				c-3.4-1-5.3-3.4-4.9-6.7c0.4-3,1.7-5.8,2.7-8.6c2.8-7.2,5.5-14.4,8.3-21.6c3.1-8,9.1-19.5,2.1-27.1c-0.5-0.6-1.4,0.3-0.9,0.9
				c4.6,5,2.7,11.9,0.7,17.6C56.8,77,54.3,83,52,89.1c-2.2,5.7-4.7,11.4-6.5,17.2c-0.9,2.8-1.8,6.7,0.3,9.2c2,2.5,5.4,2.3,8.2,2.2
				c5.8-0.3,11.4-0.4,16.5,2.8c13.8,8.6,3.1,26.4-2.9,36.5C67.2,157.6,68.3,158.2,68.7,157.6L68.7,157.6z"/>
		</g>
	</g>
	<circle class="st1" cx="53.2" cy="58.5" r="14.3"/>
</g>
</svg>
