<svg id="Capa_1" data-name="Capa 1" xmlns="http://www.w3.org/2000/svg" viewBox="0 0 198.36 200.29"><defs><style>.cls-1{fill:#606060;}</style></defs><title>lion</title><path class="cls-1" d="M349.67,342.45c5.95-5.89,2.05-13,2.9-20.56L321,339.13c3.14-5.38,5.63-9.67,8.68-14.89L326,325.7l6.22-8.07c-3.12-3-5.64-.89-8,.74s-4.2,3.87-6.6,5.3c-2.21,1.33-4.85,1.94-8.47,3.3l-10.32-6.74c1-4.54,4.68-4.09,8.1-3.56,8,1.22,11.68-.45,16.5-8.2l-17.73-9.73h30.44c5.66,0,11.34.18,17-.13,1.61-.09,3.15-1.6,4.72-2.46-1.73-1-3.49-2.83-5.18-2.77-4.22.13-8.41,1.14-12.61,1.79l1.71,1.45c1-1.86,3.23-4.51,2.66-5.42-1.26-2.06-3.92-3.25-6.49-5.14l1.64-4.07c-8.34,1.55-12.83-3.4-18.25-7.69-3-2.39-8.76-1.46-13.29-1.68-.66,0-1.42,1.89-2.13,2.91,1,.65,2.12,2,3.06,1.86,5.28-.61,8.56,1.83,11.77,5.8,2,2.5,5.6,3.76,8.53,5.6-2.65,1.71-5.09,3.78.62,6.2l-1.47.89q-6.17-5.16-12.33-10.32c-.12-.1-.34-.29-.31-.37,1.35-3.73.15-6.34-3.76-6.92-4.64-.7-8.46,1.13-11.21,5a8.22,8.22,0,0,1-1.4,1.13c.19-6.19,2.88-10.34,7.89-12.71A13.27,13.27,0,0,1,321.48,273c2.15,1.57,3.94,3.76,6.28,4.89,2.18,1.05,4.85,1.07,7.31,1.55l.72-1.83-11.06-13.17.56-.84,19.82,9.59c-1.43-5-1.14-9.47-4.82-10.9,0-1.83.56-4-.09-4.45a70.24,70.24,0,0,0-11.35-6.71c-6-2.64-9.84-7.39-8.29-13,.87-3.14,3.52-6.26,6.22-8.25,2-1.46,4.87-.66,3.08,3.2l-.89-2.93a10.74,10.74,0,0,0-3.05,1.29c-4.34,3.82-2.49,12,3.47,14.11,2.67.94,5.79.59,8.71.82l-.17-.13L329,247.86c2.49,1.69,3.86,3.24,5.51,3.63,5.2,1.25,7.66,4.24,8.62,9.56,1.88,10.48,6.54,15,15.13,16.9-2.84,0-5.76-.4-8.5.12-2.56.48-4.93,1.95-7.09,2.85l18.86,13.63.52-.48c-2.66-4-5.33-8-8.28-12.38,6.12.08,11.34-.58,12.85-7.27,3.22,3.11,3,4.66-.9,8.21-2.53,2.29-2.86,8.22-.09,9.61,2.58,1.3,5.74,1.45,8.8,2.15-.46-2.76-.91-5.41-1.39-8.28h-2.54c2-4.63,4.83-2.7,6.55-1.69,0,2.76-.58,6.39.11,6.65,2.2.82,5.89,1.45,7.13.23,2.64-2.58,4.21-6.31,6-9.7.57-1.11.36-2.63.5-4l1.51,0c.7,4.78,1.41,9.56,2.1,14.2l-3.46,2.45a31.38,31.38,0,0,0,4.9,2.19c1.36.36,2.89.07,4.32.72-3-.16-5.93-.37-8.89-.44-1.57,0-3.14.17-4.71.27a51.89,51.89,0,0,0,2.27,4.83c.37.62,1.31.91,2,1.36l-6.25-.7c.72,2.67.8,5.29,2.07,7.08a9.48,9.48,0,0,0,5.6,3.59c1.09.19,3.28-2,3.86-3.56,1.83-4.93-3.06-4.8-5.46-6.54,4.09-.22,7.42.09,7.58,5.68,0,1.57,2.75,4.11,4.45,4.3a7.89,7.89,0,0,0,6.29-2.63c3.61-5.11,6.1-10.72,2.12-17a42.38,42.38,0,0,1-2.53-5.92l3.54-1.81c1.3,2.28,2.38,4.18,3.8,6.69-.34.61-1.7,2-1.74,3.43-.05,1.62.71,4.33,1.79,4.73,8,3,11,9.51,13.23,16.9,2.08,6.83,3,14.27,10.26,19.78-10-3.35-8.94-12.06-12.24-18.47q0,5,0,10c-.28-3.6-.3-7.25-.93-10.78-.49-2.77-1.72-5.41-2.62-8.11l-1.7.53c2.37,6.5-1.7,14.41,4.87,20.71l.3-2.5c5.11,10.51,8.26,12.35,20.12,10.16,7.38-1.36,10.17,3.73,13.66,8.23,2,2.6,4.08,5.16,6.12,7.74l1-.78c-1.18-3.35-2.35-6.7-3.56-10-2.44-6.73-6.88-10.76-14.38-11-6.41-.18-11-3.45-13.81-9.1-1.64-3.27-3.15-6.6-4.74-9.89a37.55,37.55,0,0,1-3.7-9.91c2.7,4.88,5.68,9.63,8,14.68,3.2,6.88,7.91,11.37,15.74,12a19.47,19.47,0,0,1,2.39.68c8.75,1.78,10.26,3.34,11.79,12.23s5.8,12.73,13.59,11.75c2.27-.29,4.39-1.81,7.19-2.39-1.45,1.39-2.68,3.17-4.38,4.1a16.23,16.23,0,0,1-21.32-5.9c-4.83-8.16-10.34-11-19.85-9.89L465,363l-3.12,1.56q-2.34,6.11-4.67,12.23l-.57-.15c.27-1.09.53-2.18.82-3.26,1.84-6.84.36-11.68-6.12-14.5A32,32,0,0,1,434,341.24,8.2,8.2,0,0,0,431.7,338c-6.31-4.81-11.11-10.44-10.85-19.17-2.84,4.54-2.77,9-1.28,13.58,2.1,6.44,3.91,13,6.48,19.27,2.28,5.55,5.43,10.76,8.13,16-4.15-1-7.09-4.11-8.8-8.33-1.81-4.45-3-9.16-4.82-13.59-2-4.79-4.59-9.35-6.74-14.09-.74-1.62-.83-3.53-1.38-5.26-.6-1.92-1.37-3.78-2.07-5.67l-1.19.28v16.47c-1.06-4.75,1.09-10.13-4-14.32v14.29c-1.07-4.34-2.05-8.35-3-12.35l-2.06.27c3.6,7.08.12,13.62-.74,20.36-.57,4.42.54,8.31,3.87,12.4-.45-4.55-.82-8.25-1.19-12a25,25,0,0,0,7.35,16.49c3.28,3.39,2.35,7.6,2,11.8a63.75,63.75,0,0,0,.05,13.81c.2,1.55,2.79,3,4.51,4.1a41.06,41.06,0,0,0,5.7,2.61l1.1-2.2c.91,4.27-.7,5.8-5.51,6.17-.25-1.72,0-4.22-.77-4.55-6.15-2.71-10.15-6.78-10.45-13.85,0-.3-1.23-.55-2.58-1.11,8.25-10.27.42-16.95-6.4-24.49v32.64l-1.05.56c-2-2.44-3.82-5-6-7.28-1.1-1.15-2.73-1.8-4.12-2.67-.1-3.47,0-7-.34-10.4-.74-7.07.19-13.55,5.43-18.9a28.76,28.76,0,0,0,3.71-4.66c4.53-7.13.71-19.34-6.79-22q2.7,7,5.44,14.07l-.46,0-11-18.21-1.78.84c1.45,3.35,2.93,6.68,4.33,10.05,1.78,4.28,5.2,8.4,1.54,13.32,1.25-4.58-.64-8.24-2.94-12.1-2.76-4.61-4.73-9.69-7.06-14.56-.39-.8-.89-1.55-1.58-2.72-1.37,8.16-.34,11.91,5.38,20.45,3.53,5.28,3,8.13-2,11.59-8.13,5.57-9.89,10.84-6.12,20,3.08,7.48,5.67,14.79-.55,22.24l1.35.79,5.88-5.28-1.09,3.74,1.34.79q3.39-3.78,6.77-7.55c-3.85,7.85-10.91,11.32-20.13,9.35,5.28-4.81,9.93-9.88,6-17.21-1.46-2.72-1.39-6.95-6-7.6.33-.84,1.21-1.94,1.06-2.89-1.12-7.4,2.51-12.16,8-16.47,4.29-3.35,4-5.68-.43-11.39-8.45,13.57-16.72,26.84-25.37,40.71.68-6.49,1.13-12.3,2-18.05a5.51,5.51,0,0,1,2.79-3.53c13.28-6,19.13-16.27,18.09-30.73-.28-3.9,0-7.85,0-11.78l-1.57-.17L365,339l-1.19-.22,5-33.05c-4,2.85-4.74,7.49-5.7,11.83s-1.21,8.67-2.14,12.95c-1.16-8.82,1-17,4.74-25-5.35,4.33-7.52,10.16-7.91,16.7-.27,4.48.45,9.06-.21,13.46-.55,3.76-2.43,7.32-3.73,11l.39-5.06Zm9.27-40.07,3.59-4-1.12-1.19-14,6.53.12.95,10.33-1.61c-6.84,3.73-13.48,1.4-20.21-.54-5.75-1.66-9.14.27-10.65,4.72,4.56,1.91,9.06,3.69,13.46,5.69,3.5,1.6,6.73,2.58,9.06-.77l-14.38-6.13a17.77,17.77,0,0,1,7.47,1.62c5.24,2,10.42,1.95,15.3-.92C360.44,305.27,360.45,304.5,358.94,302.38Zm-2.13,7.09c-6.5,7.22-13.63,6.92-21.26,2.48a11.53,11.53,0,0,0-4.23-1.35c-3.48-.48-5.3,1.09-5.88,3.8,5.09,1.37,10.12,2.61,15.07,4.1C348.6,321,354.14,318.19,356.81,309.47Zm-38.74,9.1c-4.29-.49-8.06-1.16-11.84-1.25-2-.05-3.93.91-7.17,1.74,4.89,1.81,8.07,3.08,11.31,4.17C315.15,324.83,318.2,322.67,318.07,318.57ZM406,314.45h-16.7C394.93,317.58,400.52,318.19,406,314.45Z" transform="translate(-298.84 -198.61)"/><path class="cls-1" d="M468.3,338.84c1.92,4.51,3.27,7.68,4.89,11.51-.84-.37-2.49-.56-2.8-1.31a48.56,48.56,0,0,1-3-9.37c-1.58-8.1-3.55-10.45-11.83-11.7-8.51-1.3-14.5-5.41-18.78-13.07C433,308.17,428,302.12,423,295.06c3.19,1.37,6.68,2.11,9.16,4.11,3.33,2.67,5.9,6.27,8.73,9.53s5.58,7.1,8.78,10.22c6.43,6.29,12.88,6.39,20,.74a84.93,84.93,0,0,1,7-5.63,23.12,23.12,0,0,1,7.12-2.67c-6,1.87-8.93,4.74-9.52,10,4.56-2.88,7.62-9.16,14.56-5.76,3.43,1.68,4.5,4.15,3.73,7.68-.94-5.09-3.14-6.93-7.5-6.24-5.07.79-9.52,5.66-8.83,9.67-4.54-3.94-7.4,2.32-11.47,1.19l-.22,1.2,16.22,9.73Z" transform="translate(-298.84 -198.61)"/><path class="cls-1" d="M460.39,295.27l-9.93,2.08c2.25.9,3.83,2.07,5.44,2.1,8.82.18,17.64.09,26.46.09h4.77l.17.76-22.83,10.36,3.47,1.14-.06.53c-2.49-.39-5.44-.07-7.34-1.34-3.1-2.05-5.64-5-8.17-7.83-4.38-4.84-8.59-9.85-12.83-14.75a33.38,33.38,0,0,1,5.35,1.35c2,.81,3.71,2.2,5.62,3.21,6,3.16,10,1.84,12.93-4.33,1-2.09,1.76-4.29,2.65-6.43,1.46-3.51,3.61-4.6,6.81-1.89l.16-.11c-1.61.78-3.82,1.13-4.73,2.4C465.42,286.65,463,291,460.39,295.27Z" transform="translate(-298.84 -198.61)"/><path class="cls-1" d="M416.11,198.62c-11.65,3-14.71,8.65-10,18.35,3.69,7.66,3.11,14.08-2.24,20.74-2.53,3.14-3.58,7.47-5.1,10.82l-.94-2.24q-4.2,8.69,5.06,10.88c-3.43.89-5.09.25-6.79-3.15-3.58-7.18-1.62-15.14,3-22.08a18.25,18.25,0,0,0,2.45-8.27c.2-2.2-.79-4.54-1.35-6.79C397.19,204.87,402.42,198.37,416.11,198.62Zm-10,25.83c-1.43,7.58-10.11,11.55-10,19.74C399.74,237.71,408.54,233.85,406.11,224.45Z" transform="translate(-298.84 -198.61)"/><path class="cls-1" d="M365.86,204.19H361c0,.51-.05,1,.07,1.06,8.77,4,7.75,8.76,4.52,16.35-1.1,2.6-2.43,5.1-3.41,7.74-3.11,8.36-1.55,13.37,5.79,18.49,3.58,2.5,6.84,5.12,7.45,9.71-6.47-7.93-17.54-11.81-19.44-23.16-.29.11,1,0,1.11-.49,1.68-5.87,3.7-11.72,4.56-17.72.54-3.75-2.12-5.45-6.26-4.71-1.86.33-4-.78-6-1.23,1.41-1.85,2.47-4.66,4.31-5.34,3.85-1.41,8.1-1.68,12.19-2.42Zm-15.55,5.37.64,1.18h10.24l.4-1.7c-2.55-.68-5.08-1.7-7.67-1.88C352.78,207.08,351.52,208.7,350.31,209.56Z" transform="translate(-298.84 -198.61)"/><path class="cls-1" d="M429,381.68,418.41,375c.08-.84,0-1.43.2-1.79,4.71-7.07,3.15-12.82-3-18.29-6.5-5.74-2.79-13.17-1.88-20.18l16.2,46.21Z" transform="translate(-298.84 -198.61)"/><path class="cls-1" d="M336.57,243.69l8.86,1.18-2.77-10.36,28.6,27.18c-3.7,3-7.27,3.34-10.4.36a28.92,28.92,0,0,1-6.07-8.32c-4.13-8.74-4.86-9.31-14.38-7.8-.82.13-1.65.19-2.48.28l.17.13Z" transform="translate(-298.84 -198.61)"/><path class="cls-1" d="M457.7,259.3c1.43-4,2.87-7.94,4.58-12.68L434.7,266.37c6.67-9.86,4.93-10.42,16.15-13.29,4.33-1.11,7-4.11,8.61-8.28,2.16-5.62,8.57-10.16,15.13-10.65-7.88,1.81-10.26,7.41-11.07,14.62-.43,3.85-2.2,7.55-3.37,11.32Z" transform="translate(-298.84 -198.61)"/><path class="cls-1" d="M386.5,217.53c1.48,8.21,2.95,16.41,4.62,25.69l-14.53-6.9c6.92-.52,5.25-5.29,6.37-8.16,1.31-3.35,1.77-7,2.59-10.58Z" transform="translate(-298.84 -198.61)"/><path class="cls-1" d="M457.07,231.46,437.33,257C438.1,244.31,442.74,234.31,457.07,231.46Z" transform="translate(-298.84 -198.61)"/><path class="cls-1" d="M472.9,280.32l16.14,9c6.67-4.23,7.79-12,2.78-19.89,5.49,4.12,6.6,10.94,2.76,16.94-3.3,5.17-9.35,6.57-15.25,3.08-3.2-1.89-6.12-3.27-9.61-1.05,1.11-2.73,2.23-5.45,3.34-8.18Z" transform="translate(-298.84 -198.61)"/><path class="cls-1" d="M457.12,284.44l-11.51-2.52-.34-1.56c9.35,3.13,14.16-5,21.39-7.69-5.63,2.56-6.1,7.63-6.92,12.47-1,6.08-3.56,7.36-8.89,4.34a19.3,19.3,0,0,1-6.3-5.17c2.19,1,4.4,2,6.55,3C455.24,289.39,456.29,288.84,457.12,284.44Z" transform="translate(-298.84 -198.61)"/><path class="cls-1" d="M432.12,342.45c.95,1.89,2,3.73,2.84,5.68a36.63,36.63,0,0,0,12.13,15.41c7.23,5.44,8.62,12.17,4.68,19.8-.53,1-2,1.57-4.07,3.06,1.52-3.07,2.67-5.06,3.52-7.18,2.14-5.32,1.43-10-3.54-12.63C437.9,361.39,434,352.74,432.12,342.45Z" transform="translate(-298.84 -198.61)"/><path class="cls-1" d="M433.75,292.48c3.78-.07,7.66,2.75,10.82,6.53s5.84,7.69,8.69,11.59c3.25,4.44,6.77,8.37,13.17,7.26-5,2.22-9.43,1-12.88-2.78-3-3.29-5.24-7.31-8.21-10.65C441.47,300.05,437.21,296,433.75,292.48Z" transform="translate(-298.84 -198.61)"/><path class="cls-1" d="M425.49,218.56,414,251.05c-3-4.47-1.07-8.08.92-11.59s3.49-6.82,3.07-11.53c-.28-3.12,4-6.65,6.27-10Z" transform="translate(-298.84 -198.61)"/><path class="cls-1" d="M431.65,229.9c-5.82,3.74-6.2,10-6.9,16.07-.79,6.81-3.39,9.67-10.55,10.9,2.45-2.66,5.27-5,7.14-8,1.33-2.09,1.15-5.07,2-7.52,1.25-3.44,2.85-6.76,4.33-10.12.69-1.54,1.46-3.05,2.12-4.44Z" transform="translate(-298.84 -198.61)"/><path class="cls-1" d="M331.21,352.79c-1.5,2.71-3.22,5.14-1.25,8.66.73,1.31-.7,3.83-1.17,5.87-5-1.9-6.18-1-6.52,4.36-1.72-4.49-1.36-5,4.69-7.68-.18-4.73-1.08-9.23-.2-13.36.46-2.17,4-3.69,6.77-4.77a40.07,40.07,0,0,0-5.29,4.26c-.62.68-.19,2.31-.24,3.51l3.22-.85Z" transform="translate(-298.84 -198.61)"/><path class="cls-1" d="M372.8,212.8c-1.15,4.06-2.25,8.13-3.48,12.16-.43,1.42-1.22,2.73-1.78,4.12-3.61,9-2.13,12.3,6.88,15.52,1.7.61,3.39,1.26,5.86,2.18a11.75,11.75,0,0,1-2.15.1c-13.37-3-18.15-8.17-10-22.14,2.09-3.58,2.7-8,4-12.08Z" transform="translate(-298.84 -198.61)"/><path class="cls-1" d="M361.67,272.31c-5.41,2.72-10.08.3-10.46-4.92a64.55,64.55,0,0,1,.37-11.42C354.41,261.79,351.94,270.47,361.67,272.31Z" transform="translate(-298.84 -198.61)"/><path class="cls-1" d="M443.85,273.34c3.67-9.62,14.4-6.07,20.17-11.9l.83,1.62Z" transform="translate(-298.84 -198.61)"/><path class="cls-1" d="M426.63,340c3.61,8.23,7.23,16.46,10.45,23.78C429.21,358.81,429.48,348.56,426.63,340Z" transform="translate(-298.84 -198.61)"/><path class="cls-1" d="M486.34,279.78a65.91,65.91,0,0,1-7.86-2.51,15.08,15.08,0,0,1-6.17-5.13,27.06,27.06,0,0,1,3.85,2.45c4.63,4.19,10.61,4.5,14.31.61.22,5.53-.81,6.61-6.51,6.78Z" transform="translate(-298.84 -198.61)"/><path class="cls-1" d="M436.67,227.61c7.33-4.86,7.61-6.5,2.77-13.93-.66-1-.54-2.51-.34-3.86C446.66,217.82,447.64,223.09,436.67,227.61Z" transform="translate(-298.84 -198.61)"/><path class="cls-1" d="M437.65,232c-11,4.9-5.9,17.05-11.17,24.52C430.46,248.5,424.73,236.06,437.65,232Z" transform="translate(-298.84 -198.61)"/><path class="cls-1" d="M462.71,270.79c2.29-2.73,4.58-5.46,7-8.27H479l-16.42,8.22Z" transform="translate(-298.84 -198.61)"/><path class="cls-1" d="M484.16,242.56,471,240.17c4.08-3.3,7.75-1.47,11.95,0l-2.55-3.87.6-.35,3.93,5.31Z" transform="translate(-298.84 -198.61)"/><path class="cls-1" d="M439.63,236.27c-8.28,5.78-3.07,16.7-9.18,23.31C435.22,252.46,430,241.54,439.63,236.27Z" transform="translate(-298.84 -198.61)"/><path class="cls-1" d="M493.94,327.84V313.28A9.76,9.76,0,0,1,493.94,327.84Z" transform="translate(-298.84 -198.61)"/><path class="cls-1" d="M380.88,281.77l2.67-8.16c1.71,2.3,3.34,3.79,4,5.63.48,1.31-.35,3.09-1.71,4.33l.46-6.26-1.26-.24-3.14,5.15Z" transform="translate(-298.84 -198.61)"/><path class="cls-1" d="M413.73,282.18l-3.17-5-1.35.17c.16,2.05.32,4.11.48,6.13-3.33-3.11-2.46-6.22,2.71-8.86.75,2.39,1.48,4.72,2.22,7.06Z" transform="translate(-298.84 -198.61)"/><path class="cls-1" d="M376.94,250.9c5.42,5.83,5.73,5.89,9.41,1.78l.94,1.07c-1.81,1.38-4.21,4.26-5.31,3.83-2.44-1-4.23-3.59-6.28-5.54Z" transform="translate(-298.84 -198.61)"/><path class="cls-1" d="M413.27,231.22l-9.94,16.34-1-.51,9.81-16.43Z" transform="translate(-298.84 -198.61)"/><path class="cls-1" d="M409.76,215.93c-1.8-5.1-.47-8.38,4.47-11C412.92,208.16,411.17,212.45,409.76,215.93Z" transform="translate(-298.84 -198.61)"/><path class="cls-1" d="M356.79,262.86l7.79,4.26C360.66,270.45,358.59,269.39,356.79,262.86Z" transform="translate(-298.84 -198.61)"/><path class="cls-1" d="M342,347.29c-2.47,2.72-2,4.2,1.81,4.21,1.11,0,2.22-.16,3.33-.25l-15.9,1.54h0Z" transform="translate(-298.84 -198.61)"/><path class="cls-1" d="M333.46,355.85l11.74-1.15C341.59,355.65,338.69,361.57,333.46,355.85Z" transform="translate(-298.84 -198.61)"/><path class="cls-1" d="M449.36,262.54l-12.09,8.14C440.55,265.07,444.58,262.52,449.36,262.54Z" transform="translate(-298.84 -198.61)"/><path class="cls-1" d="M462.62,270.74l-16.33,6.61c4.64-4.23,10.28-6,16.39-6.57Z" transform="translate(-298.84 -198.61)"/><path class="cls-1" d="M423.28,273.43l-9.77-2.3.34-1.58,9.69,2.2Z" transform="translate(-298.84 -198.61)"/><path class="cls-1" d="M380.77,272.62c4.24-4.35,8,.51,11.93,1.19l-11.94-1.18Z" transform="translate(-298.84 -198.61)"/><path class="cls-1" d="M380.76,272.63,371.1,275l-.23-1.2,3.4-2.63,6.5,1.46Z" transform="translate(-298.84 -198.61)"/><path class="cls-1" d="M379.56,373.35c-1.69-3.36-3.82-6.57-4.95-10.09-2.19-6.8-.44-11.2,5.17-15.56,2.2-1.71,4.2-3.68,6.29-5.52-1.56,1.87-2.86,4.05-4.72,5.55-5.8,4.68-7,10.43-4.6,17.21C377.71,367.73,378.62,370.54,379.56,373.35Z" transform="translate(-298.84 -198.61)"/><path class="cls-1" d="M383.44,350.86c-.78,4.67-1.74,10.5-2.53,15.2C377.61,360,378.35,355.74,383.44,350.86Z" transform="translate(-298.84 -198.61)"/></svg>