<?xml version="1.0" encoding="utf-8"?>
<!-- Generator: Adobe Illustrator 22.1.0, SVG Export Plug-In . SVG Version: 6.00 Build 0)  -->
<svg version="1.1" id="Capa_1" xmlns="http://www.w3.org/2000/svg" xmlns:xlink="http://www.w3.org/1999/xlink" x="0px" y="0px"
	 viewBox="0 0 300 300" style="enable-background:new 0 0 300 300;" xml:space="preserve">
<style type="text/css">
	.st0{fill:#1C1A1A;}
	.st1{opacity:0.17;fill:#FFFFFF;enable-background:new    ;}
	.st2{fill:#333333;}
	.st3{fill:#FFFFFF;stroke:#1C1A1A;stroke-miterlimit:10;}
	.st4{fill:#606060;}
	.st5{fill:#0099E5;}
	.st6{fill:#FFFFFF;}
</style>
<title>lion</title>
<g>
	<g>
		<path class="st0" d="M51.8,106.1c14.6-0.2,27.7,9.2,32.5,22.9c1,2.7,3.5,4.9,6.1,4.5c4.5-0.8,8.9-1.5,13.3-2.3
			c2.6-0.4,4.1-4.9,2.4-9.7c-8-23.2-30.1-38.7-54.6-38.5c-5.1,0.1-8.9,3-8.4,5.6c0.8,4.5,1.5,8.9,2.3,13.3
			C46,104.5,48.8,106.1,51.8,106.1z"/>
		<g>
			<path class="st1" d="M61.3,85.8c0,0-9.2-2.3-14.7,1.4l2.9,14.7l3.2,0.3l-2.5-13.6C50.1,88.6,54.3,85.8,61.3,85.8z"/>
			<path class="st1" d="M65.2,88.5c0,0-8-2.1-12.7,1.2l2.5,12.8l2.8,0.3l-2.2-12C55.5,90.9,59.1,88.5,65.2,88.5z"/>
			<path class="st1" d="M68,90.8c0,0-6.4-1.6-10.2,1l2,10.3l2.2,0.2l-1.8-9.6C60.2,92.7,63.1,90.8,68,90.8z"/>
			<path class="st1" d="M71.1,92.8c0,0-5.5-1.4-8.8,0.9l1.7,8.8l1.9,0.2l-1.5-8.2C64.4,94.5,66.9,92.8,71.1,92.8z"/>
		</g>
		<polygon class="st2" points="42.2,90.7 21.9,89.5 15.5,107.1 19,106 24.9,94.2 40.5,95.8 32.7,109.8 26.2,112.9 30.4,114.3 
			37.1,110 44,99.8 		"/>
	</g>
	<g>
		<path class="st0" d="M44.2,175.1c10.1-10.6,25.9-13.5,39.1-7.3c2.6,1.2,5.9,1,7.5-1.2c2.5-3.7,5.1-7.4,7.6-11.2
			c1.6-2.1-0.7-6.4-5.3-8.5c-22.2-10.4-48.8-5.6-65.7,12.2c-3.5,3.7-4.1,8.4-1.9,9.9c3.7,2.5,7.4,5.1,11.2,7.6
			C39,178,42.2,177.1,44.2,175.1z"/>
		<g>
			<path class="st1" d="M37,153.9c0,0-8.4,4.2-10.1,10.7l11.8,9.2l2.6-1.8l-10.8-8.8C30.4,163.3,31.7,158.5,37,153.9z"/>
			<path class="st1" d="M41.7,153.4c0,0-7.3,3.7-8.8,9.3l10.3,8l2.3-1.6l-9.5-7.6C36,161.5,37.1,157.4,41.7,153.4z"/>
			<path class="st1" d="M45.3,153.3c0,0-5.9,2.9-7,7.4l8.2,6.5l1.8-1.3l-7.6-6.1C40.7,159.8,41.7,156.6,45.3,153.3z"/>
			<path class="st1" d="M49,152.7c0,0-5,2.5-6.1,6.4l7.1,5.6l1.6-1.1l-6.5-5.3C45,158.4,45.8,155.5,49,152.7z"/>
		</g>
		<polygon class="st2" points="25.1,171.2 10.8,185.5 19.6,201.9 21.1,198.6 16.2,186.3 27.8,175.8 33,191 31,197.8 34.9,195.6 
			36.1,187.7 33.1,175.9 		"/>
	</g>
	<g>
		<path class="st0" d="M256.6,174.5c-10.1-10.6-25.9-13.5-39.1-7.3c-2.6,1.2-5.9,1-7.5-1.2c-2.5-3.7-5.1-7.4-7.6-11.2
			c-1.6-2.1,0.7-6.4,5.3-8.5c22.2-10.4,48.8-5.6,65.7,12.2c3.5,3.7,4.1,8.4,1.9,9.9c-3.7,2.5-7.4,5.1-11.2,7.6
			C261.8,177.5,258.6,176.6,256.6,174.5z"/>
		<g>
			<path class="st1" d="M263.4,153.5c0,0,8.4,4.2,10.1,10.7l-11.8,9.2l-2.6-1.8l10.9-8.7C270,162.9,268.6,158.1,263.4,153.5z"/>
			<path class="st1" d="M258.7,153c0,0,7.3,3.7,8.8,9.3l-10.3,8l-2.3-1.6l9.5-7.6C264.4,161.1,263.2,157,258.7,153z"/>
			<path class="st1" d="M255.1,152.9c0,0,5.9,2.9,7,7.4l-8.2,6.5l-1.8-1.3l7.6-6.1C259.6,159.4,258.7,156.2,255.1,152.9z"/>
			<path class="st1" d="M251.4,152.3c0,0,5,2.5,6.1,6.4l-7.1,5.6l-1.6-1.1l6.5-5.3C255.3,158,254.5,155.1,251.4,152.3z"/>
		</g>
		<polygon class="st2" points="274.8,170.6 289.3,184.9 280.4,201.4 278.8,198 283.8,185.8 272.2,175.3 266.9,190.4 268.9,197.3 
			265.1,195.1 263.8,187.2 266.9,175.3 		"/>
	</g>
	<g>
		<path class="st0" d="M246.9,105c-14.6-0.2-27.8,9.1-32.5,22.9c-1,2.7-3.5,4.9-6.1,4.5c-4.5-0.8-8.9-1.5-13.3-2.3
			c-2.6-0.4-4.1-4.9-2.4-9.7c8-23.2,30.1-38.7,54.6-38.5c5.1,0.1,8.9,3,8.4,5.6c-0.8,4.5-1.5,8.9-2.3,13.3
			C252.7,103.4,249.8,105,246.9,105z"/>
		<g>
			<path class="st1" d="M237.8,85c0,0,9.2-2.3,14.7,1.4l-2.9,14.7l-3.2,0.3l2.5-13.7C248.8,87.8,244.7,85,237.8,85z"/>
			<path class="st1" d="M233.8,87.7c0,0,8-2.1,12.7,1.2l-2.5,12.8l-2.8,0.3l2.2-12C243.5,90.1,239.8,87.7,233.8,87.7z"/>
			<path class="st1" d="M231.1,90c0,0,6.4-1.6,10.2,1l-2,10.3l-2.2,0.2l1.8-9.6C238.8,91.9,235.9,90,231.1,90z"/>
			<path class="st1" d="M227.9,92c0,0,5.5-1.4,8.8,0.9l-1.7,8.8l-1.9,0.2l1.5-8.2C234.6,93.7,232.1,92,227.9,92z"/>
		</g>
		<polygon class="st2" points="256.7,89.4 277,88.2 283.3,105.8 279.8,104.7 273.9,92.9 258.4,94.5 266.2,108.5 272.6,111.6 
			268.5,113 261.7,108.6 254.9,98.5 		"/>
	</g>
	<g>
		<path class="st0" d="M93.6,257.4c3.6-14.2,16-24.5,30.6-25.5c2.9-0.2,5.6-2.1,5.9-4.7c0.4-4.5,0.8-9,1.2-13.5
			c0.3-2.6-3.7-5.2-8.8-4.9c-24.5,1.8-45.2,19-51.3,42.8c-1.3,4.9,0.6,9.4,3.2,9.6c4.5,0.4,9,0.8,13.5,1.2
			C90.5,262.5,92.8,260.2,93.6,257.4z"/>
		<g>
			<path class="st1" d="M76.6,243.7c0,0-5,8-3.2,14.3l14.9,1.8l1.4-2.9l-13.8-1.8C75.9,255.1,74.6,250.4,76.6,243.7z"/>
			<path class="st1" d="M80.5,240.8c0,0-4.4,6.9-2.8,12.5l13,1.6l1.2-2.5l-12-1.6C79.8,250.8,78.6,246.5,80.5,240.8z"/>
			<path class="st1" d="M83.6,238.9c0,0-3.5,5.6-2.2,10l10.4,1.3l1-2.1l-9.6-1.3C83,246.9,82.1,243.5,83.6,238.9z"/>
			<path class="st1" d="M86.4,236.5c0,0-3,4.8-1.9,8.6l8.9,1.1l0.8-1.8l-8.3-1.1C85.9,243.4,85.1,240.5,86.4,236.5z"/>
		</g>
	</g>
	<g>
		<path class="st0" d="M203.3,259.8c-3.6-14.2-16-24.5-30.6-25.5c-2.9-0.2-5.6-2.1-5.9-4.7c-0.4-4.5-0.8-9-1.2-13.5
			c-0.3-2.6,3.7-5.2,8.8-4.9c24.5,1.8,45.2,19,51.3,42.8c1.3,4.9-0.6,9.4-3.2,9.6c-4.5,0.4-9,0.8-13.5,1.2
			C206.5,264.9,204.1,262.6,203.3,259.8z"/>
		<g>
			<path class="st1" d="M220.2,246.4c0,0,5,8,3.2,14.3l-14.9,1.8l-1.4-2.9l13.8-1.8C221,257.8,222.4,253,220.2,246.4z"/>
			<path class="st1" d="M216.4,243.4c0,0,4.4,6.9,2.8,12.5l-13,1.6L205,255l12-1.6C217.1,253.4,218.3,249.2,216.4,243.4z"/>
			<path class="st1" d="M213.4,241.6c0,0,3.5,5.6,2.2,10l-10.4,1.3l-1-2.1l9.6-1.3C213.9,249.6,214.8,246.2,213.4,241.6z"/>
			<path class="st1" d="M210.5,239.2c0,0,3,4.8,1.9,8.6l-8.9,1.1l-0.8-1.8l8.3-1.1C211,246.1,211.8,243.2,210.5,239.2z"/>
		</g>
	</g>
	<circle class="st0" cx="149.7" cy="158.7" r="89.2"/>
	<circle class="st0" cx="149.7" cy="71.9" r="36.7"/>
	<circle class="st3" cx="148.9" cy="63.1" r="15.9"/>
	<g>
		<path class="st4" d="M116,195.5c4-4,1.4-8.8,2-13.9l-21.3,11.6c2.2-3.7,3.8-6.5,5.9-10l-2.5,1l4.2-5.4c-2.1-2-3.8-0.6-5.4,0.5
			c-1.6,1.1-2.9,2.6-4.5,3.6c-1.5,0.9-3.3,1.3-5.7,2.2l-6.9-4.5c0.6-3,3.2-2.8,5.5-2.4c5.4,0.8,7.9-0.3,11.2-5.5l-12-6.5h20.6
			c3.8,0,7.6,0.2,11.5-0.1c1.1-0.1,2.2-1.1,3.2-1.7c-1.2-0.6-2.4-1.9-3.5-1.8c-2.9,0.1-5.7,0.8-8.5,1.2l1.1,1c0.6-1.3,2.2-3,1.8-3.7
			c-0.9-1.4-2.6-2.2-4.4-3.5l1.1-2.7c-5.7,1-8.7-2.3-12.4-5.2c-2-1.6-5.9-1-9-1.1c-0.5,0-1,1.3-1.4,2c0.6,0.5,1.4,1.4,2.1,1.3
			c3.6-0.4,5.8,1.3,8,3.9c1.4,1.7,3.7,2.5,5.7,3.7c-1.8,1.1-3.4,2.5,0.4,4.2l-1,0.6c-2.8-2.3-5.6-4.6-8.3-6.9
			c-0.1-0.1-0.2-0.2-0.2-0.2c0.9-2.5,0.1-4.3-2.5-4.7c-3.1-0.5-5.7,0.8-7.6,3.3c-0.3,0.3-0.6,0.6-1,0.8c0.2-4.1,1.9-7,5.3-8.6
			c3.1-1.6,6.9-1.3,9.6,0.9c1.4,1,2.6,2.5,4.2,3.3c1.4,0.7,3.3,0.7,4.9,1l0.5-1.3l-7.5-8.9l0.4-0.6l13.4,6.5c-1-3.3-0.8-6.4-3.3-7.3
			c0-1.3,0.4-2.7-0.1-3c-2.4-1.8-4.9-3.3-7.6-4.5c-4.1-1.8-6.6-5-5.6-8.8c0.6-2.2,2.4-4.2,4.2-5.6c1.4-1,3.3-0.5,2.1,2.2l-0.6-2
			c-0.7,0.2-1.4,0.5-2.1,0.9c-2.9,2.5-1.7,8.1,2.3,9.6c1.8,0.6,3.9,0.4,5.9,0.6l-0.1-0.1l-6.1,1.1c1.7,1.1,2.6,2.2,3.7,2.5
			c3.5,0.9,5.2,2.9,5.8,6.5c1.3,7.1,4.4,10.1,10.2,11.4c-1.9,0-3.9-0.2-5.7,0.1c-1.8,0.3-3.3,1.4-4.8,1.9l12.7,9.2l0.3-0.3
			c-1.8-2.7-3.6-5.4-5.6-8.4c4.1,0.1,7.6-0.4,8.7-4.9c2.2,2.1,2,3.1-0.6,5.6c-1.7,1.5-1.9,5.6-0.1,6.5c1.8,0.9,3.9,1,6,1.4
			c-0.3-1.8-0.6-3.7-1-5.6h-1.8c1.4-3.1,3.3-1.8,4.4-1.1c0,1.8-0.4,4.3,0.1,4.5c1.5,0.6,4,1,4.8,0.2c1.8-1.8,2.9-4.2,4.1-6.5
			c0.4-0.7,0.2-1.8,0.3-2.7h1c0.5,3.2,1,6.5,1.4,9.6l-2.3,1.7c1,0.6,2.2,1.1,3.3,1.5c1,0.2,1.9,0.1,2.9,0.5c-2-0.1-4-0.2-6-0.3
			c-1,0-2.2,0.1-3.2,0.2c0.5,1.1,1,2.2,1.5,3.3c0.2,0.4,0.9,0.6,1.4,1l-4.2-0.5c0.5,1.8,0.6,3.6,1.4,4.8c1,1.3,2.2,2.1,3.7,2.4
			c0.7,0.2,2.2-1.4,2.6-2.4c1.3-3.3-2.1-3.3-3.7-4.4c2.8-0.2,5,0.1,5.1,3.8c0,1,1.8,2.8,3,2.9c1.6,0.1,3.2-0.6,4.2-1.8
			c2.5-3.4,4.1-7.3,1.4-11.5c-0.6-1.3-1.3-2.6-1.7-4l2.4-1.2c0.9,1.5,1.6,2.8,2.5,4.5c-0.2,0.4-1.1,1.4-1.2,2.3
			c0,1.1,0.5,2.9,1.2,3.2c5.4,2,7.4,6.5,8.9,11.4c1.4,4.6,2,9.6,6.9,13.4c-6.8-2.2-6.1-8.1-8.3-12.4c0,2.2,0,4.5,0,6.8
			c-0.2-2.5-0.2-4.9-0.6-7.3c-0.3-1.8-1.2-3.7-1.8-5.5l-1.1,0.3c1.6,4.4-1.1,9.7,3.3,13.9l0.2-1.7c3.4,7.1,5.6,8.4,13.5,6.9
			c5-1,6.9,2.5,9.2,5.6c1.4,1.8,2.8,3.5,4.1,5.3l0.6-0.6c-0.8-2.2-1.6-4.5-2.4-6.8c-1.7-4.5-4.6-7.3-9.7-7.4
			c-4.3-0.2-7.4-2.3-9.3-6.1c-1.1-2.2-2.2-4.5-3.2-6.7c-1.1-2.1-2-4.4-2.5-6.7c1.8,3.3,3.8,6.5,5.4,9.9c2.2,4.6,5.3,7.6,10.6,8.1
			c0.6,0.1,1.1,0.2,1.6,0.5c5.9,1.2,6.9,2.2,8,8.3c1,6,3.9,8.6,9.2,8c1.5-0.2,2.9-1.2,4.9-1.6c-1,1-1.8,2.2-2.9,2.8
			c-5.1,2.6-11.4,0.9-14.4-4c-3.3-5.5-7-7.4-13.4-6.7l16.3,14.7l-2.1,1c-1,2.8-2.1,5.5-3.2,8.3l-0.4-0.1c0.2-0.7,0.3-1.4,0.6-2.2
			c1.3-4.6,0.2-7.9-4.1-9.8c-5.3-2.2-9.6-6.5-11.7-11.9c-0.3-0.9-0.9-1.6-1.5-2.2c-4.2-3.3-7.5-7-7.3-12.9c-1.9,3-1.8,6.1-0.9,9.2
			c1.4,4.4,2.6,8.8,4.4,13c1.5,3.7,3.7,7.3,5.5,10.8c-2.8-0.6-4.8-2.8-6-5.7c-1.2-3-2-6.2-3.3-9.2c-1.4-3.3-3.1-6.3-4.5-9.5
			c-0.5-1.1-0.6-2.4-1-3.6c-0.4-1.3-1-2.5-1.4-3.8l-0.8,0.2v11.2c-0.7-3.2,0.7-6.9-2.7-9.6v9.6c-0.7-2.9-1.4-5.7-2-8.4l-1.4,0.2
			c2.5,4.8,0.1,9.2-0.5,13.8c-0.4,2.9,0.4,5.6,2.6,8.4c-0.3-3.1-0.6-5.6-0.8-8.1c0.2,4.2,2,8.2,4.9,11.2c2.2,2.3,1.6,5.1,1.4,8
			c-0.3,3.1-0.3,6.2,0,9.3c0.2,1,1.9,2,3,2.8c1.3,0.7,2.5,1.3,3.8,1.8l0.7-1.5c0.6,2.9-0.5,3.9-3.7,4.1c-0.2-1.2,0-2.9-0.6-3.1
			c-4.1-1.8-6.9-4.5-7.1-9.3c0-0.2-0.8-0.4-1.8-0.7c5.6-6.9,0.3-11.5-4.3-16.5v22.1l-0.7,0.4c-1.4-1.7-2.5-3.3-4.1-4.9
			c-0.7-0.8-1.8-1.2-2.8-1.8c-0.1-2.3,0-4.7-0.2-7c-0.5-4.8,0.2-9.2,3.7-12.7c1-1,1.8-2,2.5-3.1c3-4.8,0.5-13.1-4.6-14.8
			c1.2,3.2,2.5,6.3,3.7,9.5H145l-7.4-12.3l-1.2,0.6c1,2.2,2,4.5,2.9,6.8c1.2,2.9,3.5,5.7,1,9c0.9-3.1-0.4-5.6-2-8.2
			c-1.8-3.1-3.2-6.5-4.8-9.8c-0.2-0.6-0.6-1-1-1.8c-1,5.5-0.2,8,3.7,13.8c2.4,3.6,2,5.5-1.4,7.8c-5.5,3.7-6.7,7.3-4.1,13.5
			c2.1,5,3.8,10-0.4,15l0.9,0.6l4-3.6l-0.7,2.5l0.9,0.6c1.5-1.7,3-3.4,4.5-5.1c-2.6,5.3-7.3,7.6-13.6,6.3c3.6-3.3,6.7-6.7,4.1-11.6
			c-1-1.8-1-4.7-4.1-5.1c0.2-0.6,0.8-1.3,0.7-1.9c-0.7-5,1.7-8.2,5.4-11.2c2.9-2.2,2.7-3.8-0.3-7.7c-5.7,9.2-11.3,18.1-17.1,27.5
			c0.5-4.4,0.8-8.3,1.4-12.2c0.2-1,1-1.9,1.9-2.4c9-4.1,12.9-11,12.2-20.7c-0.2-2.6,0-5.3,0-8l-1-0.1l-3.3,19.6l-0.8-0.2l3.3-22.3
			c-2.7,1.9-3.2,5-3.8,8c-0.6,2.9-0.8,5.8-1.4,8.8c-0.8-6,0.6-11.5,3.2-16.9c-3.6,2.9-5.1,6.9-5.3,11.2c-0.2,3,0.3,6.1-0.2,9.1
			c-0.4,2.5-1.7,4.9-2.5,7.4l0.2-3.4L116,195.5z M122.2,168.4l2.4-2.7l-0.7-0.8l-9.5,4.4l0.1,0.6l7-1.1c-4.6,2.5-9.1,1-13.6-0.4
			c-3.9-1.1-6.1,0.2-7.2,3.2c3.1,1.3,6.1,2.5,9.1,3.8c2.4,1.1,4.5,1.8,6.1-0.6l-9.7-4.1c1.8,0,3.4,0.4,5,1.1c3.5,1.4,7,1.4,10.4-0.6
			C123.3,170.4,123.3,169.9,122.2,168.4z M120.8,173.2c-4.4,4.9-9.2,4.7-14.3,1.7c-0.9-0.5-1.8-0.8-2.9-0.9c-2.3-0.3-3.6,0.7-4,2.5
			c3.4,1,6.9,1.8,10.2,2.8C115.3,181,119,179.1,120.8,173.2z M94.7,179.4c-2.9-0.3-5.4-0.8-8-0.9c-1.4,0-2.6,0.6-4.9,1.2
			c3.3,1.2,5.4,2.1,7.6,2.8C92.7,183.7,94.7,182.2,94.7,179.4z M154,176.7h-11.2C146.5,178.7,150.3,179.1,154,176.7z"/>
		<path class="st4" d="M196.1,193.1c1.3,3,2.2,5.2,3.3,7.8c-0.6-0.2-1.7-0.4-1.9-0.9c-0.9-2.1-1.6-4.1-2-6.3c-1-5.5-2.4-7.1-8-7.9
			c-5.7-0.9-9.8-3.7-12.7-8.8c-2.5-4.5-5.9-8.6-9.3-13.4c2.2,1,4.5,1.4,6.2,2.8c2.2,1.8,4,4.2,5.9,6.5c1.9,2.2,3.7,4.8,5.9,6.9
			c4.3,4.2,8.7,4.3,13.5,0.5c1.5-1.4,3.1-2.6,4.7-3.8c1.5-0.9,3.1-1.4,4.8-1.8c-4.1,1.3-6.1,3.2-6.5,6.8c3.1-1.9,5.2-6.2,9.8-3.9
			c2.3,1.1,3,2.8,2.5,5.2c-0.6-3.4-2.2-4.7-5.1-4.2c-3.4,0.6-6.5,3.8-6,6.5c-3-2.6-5,1.6-7.7,0.8l-0.2,0.8l10.9,6.5H196.1z"/>
		<path class="st4" d="M190.8,163.7l-6.7,1.4c1.5,0.6,2.5,1.4,3.7,1.4c6,0.2,11.9,0.1,17.8,0.1h3.2l0.1,0.5l-15.4,7l2.3,0.8
			l-0.1,0.3c-1.7-0.2-3.7-0.1-4.9-0.9c-2.1-1.4-3.8-3.3-5.5-5.3c-2.9-3.3-5.8-6.6-8.7-10c1.2,0.2,2.5,0.5,3.6,0.9
			c1.4,0.6,2.5,1.5,3.8,2.2c4.1,2.2,6.8,1.3,8.8-2.9c0.6-1.4,1.2-2.9,1.8-4.3c1-2.4,2.5-3.1,4.6-1.3l0.1-0.1
			c-1.1,0.6-2.5,0.8-3.2,1.6C194.1,157.8,192.5,160.8,190.8,163.7z"/>
		<path class="st4" d="M160.8,98.4c-7.9,2-10,5.8-6.8,12.4c2.5,5.2,2.1,9.5-1.5,14c-1.7,2.2-2.4,5-3.4,7.3l-0.6-1.5
			c-1.9,3.9-0.7,6.4,3.4,7.3c-2.3,0.6-3.4,0.2-4.6-2.2c-2.4-4.9-1.1-10.2,2-14.9c1-1.7,1.6-3.6,1.7-5.6c0.2-1.5-0.6-3-0.9-4.6
			C148,102.6,151.6,98.2,160.8,98.4z M154.1,115.9c-1,5.1-6.9,7.8-6.8,13.3C149.8,124.8,155.7,122.2,154.1,115.9z"/>
		<path class="st4" d="M126.9,102.1h-3.3c0,0.3,0,0.6,0.1,0.7c5.9,2.7,5.3,5.9,3,11.1c-0.7,1.8-1.7,3.4-2.3,5.3
			c-2.1,5.7-1,9,3.9,12.5c2.4,1.7,4.6,3.4,5,6.5c-4.4-5.3-11.9-8-13.1-15.6c-0.2,0.1,0.6,0,0.7-0.3c1.1-4,2.5-7.9,3.1-12
			c0.4-2.5-1.4-3.7-4.2-3.2c-1.3,0.2-2.7-0.6-4.1-0.8c1-1.3,1.7-3.1,2.9-3.6c2.6-1,5.5-1.1,8.2-1.7L126.9,102.1z M116.4,105.8
			l0.4,0.8h6.9l0.2-1.1c-1.8-0.5-3.4-1.1-5.2-1.3C118.1,104.1,117.2,105.3,116.4,105.8z"/>
		<path class="st4" d="M169.6,222l-7.2-4.5c0.1-0.6,0-1,0.2-1.2c3.2-4.8,2.2-8.7-2-12.4c-4.4-3.9-1.9-8.9-1.3-13.6l10.9,31.2
			L169.6,222z"/>
		<path class="st4" d="M107.2,128.8l6,0.8l-1.8-7l19.3,18.3c-2.5,2-4.9,2.2-7,0.2c-1.7-1.6-3.1-3.5-4.1-5.6
			c-2.8-5.9-3.3-6.3-9.7-5.3c-0.6,0.1-1.1,0.2-1.7,0.2l0.1,0.1L107.2,128.8z"/>
		<path class="st4" d="M188.9,139.4c1-2.7,1.9-5.3,3.1-8.5l-18.6,13.3c4.5-6.7,3.3-7,10.9-9c2.9-0.7,4.7-2.8,5.8-5.6
			c1.4-3.8,5.8-6.9,10.2-7.2c-5.3,1.2-6.9,5-7.5,9.9c-0.3,2.6-1.5,5.1-2.3,7.6L188.9,139.4z"/>
		<path class="st4" d="M140.9,111.2c1,5.6,2,11.1,3.1,17.4l-9.8-4.6c4.7-0.3,3.5-3.6,4.3-5.5c0.9-2.2,1.2-4.7,1.8-7.2L140.9,111.2z"
			/>
		<path class="st4" d="M188.5,120.6l-13.3,17.2C175.7,129.2,178.8,122.5,188.5,120.6z"/>
		<path class="st4" d="M199.2,153.5l10.9,6.1c4.5-2.9,5.3-8.1,1.9-13.5c3.7,2.8,4.5,7.4,1.8,11.5c-2.2,3.5-6.3,4.5-10.3,2.1
			c-2.2-1.3-4.1-2.2-6.5-0.7c0.7-1.8,1.5-3.7,2.2-5.5L199.2,153.5z"/>
		<path class="st4" d="M188.5,156.3l-7.8-1.7l-0.2-1c6.3,2.2,9.6-3.3,14.4-5.2c-3.8,1.8-4.1,5.2-4.7,8.4c-0.6,4.1-2.4,4.9-6,2.9
			c-1.7-0.9-3.1-2.1-4.2-3.5c1.5,0.6,2.9,1.4,4.4,2C187.3,159.7,188,159.4,188.5,156.3z"/>
		<path class="st4" d="M171.6,195.5c0.6,1.3,1.4,2.5,1.9,3.8c1.8,4.1,4.5,7.7,8.2,10.4c4.9,3.7,5.8,8.2,3.2,13.4
			c-0.3,0.6-1.4,1-2.7,2.1c1-2.1,1.8-3.4,2.4-4.9c1.4-3.6,1-6.8-2.4-8.5C175.5,208.3,172.9,202.5,171.6,195.5z"/>
		<path class="st4" d="M172.8,161.8c2.5-0.1,5.2,1.8,7.3,4.4c2.2,2.5,3.9,5.2,5.9,7.8c2.2,3,4.5,5.7,8.9,4.9
			c-3.3,1.5-6.4,0.6-8.7-1.9c-2-2.2-3.5-4.9-5.6-7.2C177.9,166.9,175.1,164.1,172.8,161.8z"/>
		<path class="st4" d="M167.2,111.9l-7.7,21.9c-2-3-0.7-5.4,0.6-7.8c1.4-2.4,2.4-4.6,2.1-7.8c-0.2-2.1,2.7-4.5,4.2-6.8L167.2,111.9z
			"/>
		<path class="st4" d="M171.3,119.5c-3.9,2.5-4.2,6.8-4.6,10.8c-0.6,4.6-2.3,6.5-7.1,7.3c1.7-1.8,3.6-3.3,4.8-5.4
			c0.9-1.4,0.8-3.4,1.4-5.1c0.9-2.3,1.9-4.5,2.9-6.9c0.5-1,1-2.1,1.4-3L171.3,119.5z"/>
		<path class="st4" d="M103.5,202.5c-1,1.8-2.2,3.5-0.9,5.8c0.5,0.9-0.5,2.5-0.8,4c-3.3-1.3-4.1-0.6-4.4,2.9c-1.2-3-1-3.3,3.2-5.2
			c-0.2-3.2-0.7-6.2-0.2-9c0.3-1.4,2.7-2.5,4.5-3.2c-1.3,0.9-2.5,1.8-3.6,2.9c-0.4,0.5-0.2,1.6-0.2,2.4L103.5,202.5L103.5,202.5z"/>
		<path class="st4" d="M131.6,108c-0.8,2.7-1.5,5.5-2.3,8.2c-0.3,1-0.8,1.8-1.2,2.8c-2.5,6.1-1.4,8.3,4.6,10.4
			c1.1,0.4,2.3,0.9,4,1.4c-0.5,0.1-1,0.1-1.4,0.1c-9-2-12.3-5.5-6.8-15c1.4-2.4,1.8-5.4,2.7-8.1L131.6,108z"/>
		<path class="st4" d="M124.1,148.2c-3.7,1.8-6.8,0.2-7.1-3.3c-0.2-2.5-0.1-5.2,0.2-7.7C119.2,141,117.5,146.9,124.1,148.2z"/>
		<path class="st4" d="M179.6,148.8c2.5-6.5,9.7-4.1,13.6-8l0.6,1.1L179.6,148.8z"/>
		<path class="st4" d="M168,193.9c2.5,5.6,4.9,11.1,7.1,16C169.6,206.5,169.9,199.7,168,193.9z"/>
		<path class="st4" d="M208.3,153.2c-1.8-0.5-3.6-1-5.3-1.7c-1.7-0.8-3.1-2-4.1-3.4c0.9,0.5,1.8,1,2.6,1.7c3.1,2.9,7.2,3,9.6,0.4
			c0.2,3.7-0.6,4.5-4.4,4.5L208.3,153.2z"/>
		<path class="st4" d="M174.7,118c4.9-3.3,5.1-4.4,1.8-9.4c-0.5-0.6-0.4-1.7-0.2-2.6C181.4,111.4,182.2,115,174.7,118z"/>
		<path class="st4" d="M175.4,121c-7.4,3.3-4,11.5-7.6,16.6C170.5,132.1,166.7,123.7,175.4,121z"/>
		<path class="st4" d="M192.3,147.2c1.5-1.8,3.1-3.7,4.7-5.6h6.3L192.3,147.2L192.3,147.2z"/>
		<path class="st4" d="M206.8,128l-8.8-1.6c2.8-2.2,5.3-1,8,0l-1.8-2.6l0.4-0.2l2.6,3.6L206.8,128z"/>
		<path class="st4" d="M176.7,123.8c-5.6,3.9-2.1,11.2-6.2,15.7C173.7,134.7,170.2,127.4,176.7,123.8z"/>
		<path class="st4" d="M213.4,185.7v-9.8c2.7,2.4,2.9,6.6,0.6,9.3C213.7,185.3,213.5,185.5,213.4,185.7z"/>
		<path class="st4" d="M137.1,154.6l1.8-5.5c1.1,1.5,2.2,2.5,2.7,3.8c0.3,0.9-0.2,2.1-1.1,2.9l0.3-4.2l-0.9-0.2l-2.2,3.5
			L137.1,154.6z"/>
		<path class="st4" d="M159.2,154.8l-2.2-3.3l-0.9,0.1c0.1,1.4,0.2,2.8,0.3,4.1c-2.2-2.1-1.7-4.2,1.8-6c0.5,1.6,1,3.2,1.5,4.8
			L159.2,154.8z"/>
		<path class="st4" d="M134.4,133.7c3.7,3.9,3.9,4,6.4,1.2l0.6,0.7c-1.2,1-2.9,2.9-3.6,2.5c-1.7-0.6-2.9-2.4-4.2-3.7L134.4,133.7z"
			/>
		<path class="st4" d="M158.9,120.4l-6.7,11l-0.6-0.3l6.6-11.1L158.9,120.4z"/>
		<path class="st4" d="M156.6,110.1c-1.2-3.4-0.3-5.7,3-7.4C158.6,104.9,157.5,107.7,156.6,110.1z"/>
		<path class="st4" d="M120.8,141.8l5.3,2.9C123.4,146.9,122,146.2,120.8,141.8z"/>
		<path class="st4" d="M110.8,198.8c-1.7,1.8-1.4,2.9,1.2,2.9c0.7,0,1.5-0.1,2.2-0.2l-10.8,1l0,0L110.8,198.8z"/>
		<path class="st4" d="M105,204.5l7.9-0.8C110.5,204.5,108.6,208.4,105,204.5z"/>
		<path class="st4" d="M183.3,141.6l-8.1,5.5C177.4,143.3,180.1,141.6,183.3,141.6z"/>
		<path class="st4" d="M192.3,147.1l-11,4.5C184.4,148.7,188.1,147.5,192.3,147.1L192.3,147.1z"/>
		<path class="st4" d="M165.7,148.9l-6.6-1.5l0.2-1l6.5,1.5L165.7,148.9z"/>
		<path class="st4" d="M137,148.4c2.9-2.9,5.4,0.3,8,0.8L137,148.4L137,148.4z"/>
		<path class="st4" d="M137,148.4l-6.5,1.6l-0.2-0.8l2.3-1.8L137,148.4L137,148.4z"/>
		<path class="st4" d="M136.2,216.4c-1.1-2.2-2.5-4.5-3.3-6.8c-1.5-4.6-0.3-7.6,3.5-10.5c1.5-1.1,2.9-2.5,4.2-3.7
			c-1,1.3-1.9,2.7-3.2,3.7c-3.9,3.2-4.7,7-3.1,11.6C134.9,212.6,135.5,214.5,136.2,216.4z"/>
		<path class="st4" d="M138.8,201.2c-0.6,3.2-1.2,7.1-1.7,10.3C134.8,207.4,135.4,204.5,138.8,201.2z"/>
	</g>
	<g>
		<g>
			<path class="st5" d="M147.9,55.8c0,0-8.1,7.2,0,14.7V55.8z"/>
			<path class="st5" d="M148.9,55.8c0,0,8.1,7.2,0,14.7V55.8z"/>
		</g>
		<circle class="st6" cx="148.3" cy="61" r="2.4"/>
	</g>
	<path class="st1" d="M122.1,96.3l-4.3-6.9c0,0,0,0,0,0l-4-6.4l-2.9,1.3c0,0.1,0.1,0.1,0.1,0.2c-79.7,42.6-31.4,122-31.4,122
		c-32.9-80.6,21.6-110,35.3-115.9C118.4,94.8,122.1,96.3,122.1,96.3z"/>
	<path class="st1" d="M176.4,96.3l4.3-6.9c0,0,0,0,0,0l4-6.4l2.9,1.3c0,0.1-0.1,0.1-0.1,0.2c79.7,42.6,31.4,122,31.4,122
		c32.9-80.6-21.6-110-35.3-115.9C180.1,94.8,176.4,96.3,176.4,96.3z"/>
</g>
</svg>
